<?xml version="1.0" encoding="UTF-8"?>
<svg id="Layer_1" data-name="Layer 1" xmlns="http://www.w3.org/2000/svg" viewBox="0 0 310.58 64.32">
  <defs>
    <style>
      .cls-1 {
        fill: #00003b;
      }

      .cls-2 {
        fill: blue;
      }

      .cls-3 {
        fill: #5f5f77;
      }
    </style>
  </defs>
  <g>
    <g>
      <path class="cls-1" d="M114.79,23.92v11.78c0,.61-.19,1.12-.58,1.5-.4,.4-.91,.61-1.54,.61s-1.12-.21-1.53-.61c-.4-.39-.59-.9-.59-1.5v-11.78c0-1.73-.44-3.02-1.3-3.86-.85-.84-1.98-1.26-3.36-1.26s-2.63,.5-3.55,1.49c-.93,.98-1.4,2.24-1.4,3.78v11.62c0,.61-.19,1.12-.58,1.5-.39,.4-.91,.61-1.54,.61s-1.12-.21-1.52-.61c-.41-.39-.61-.9-.61-1.5v-11.78c0-1.73-.44-3.02-1.29-3.86-.86-.84-1.99-1.26-3.37-1.26s-2.63,.5-3.58,1.49c-.95,.98-1.42,2.24-1.42,3.78v11.62c0,.61-.19,1.12-.58,1.5-.39,.4-.9,.61-1.53,.61s-1.13-.21-1.53-.61c-.4-.39-.59-.9-.59-1.5V17.36c0-.63,.19-1.14,.59-1.52,.4-.39,.91-.58,1.53-.58s1.14,.19,1.53,.58c.38,.36,.57,.85,.58,1.46,.44-.44,.92-.81,1.46-1.13,1.29-.78,2.74-1.15,4.37-1.15s2.98,.34,4.21,1.03c.95,.53,1.73,1.26,2.35,2.18,.67-.84,1.5-1.53,2.49-2.06,1.41-.78,3.01-1.15,4.8-1.15,1.59,0,2.98,.34,4.21,1.03,1.21,.68,2.16,1.7,2.85,3.02,.68,1.33,1.02,2.95,1.02,4.85Z"/>
      <path class="cls-1" d="M141.69,27.44c.36-.34,.55-.78,.55-1.3,0-2.17-.41-4.09-1.24-5.75-.81-1.66-2-2.97-3.55-3.92-1.55-.95-3.41-1.42-5.57-1.42s-4.14,.49-5.82,1.47c-1.7,.97-3.02,2.32-3.98,4.04-.96,1.71-1.43,3.7-1.43,5.96s.51,4.2,1.52,5.91c1.02,1.72,2.41,3.07,4.2,4.04,1.8,.98,3.83,1.47,6.14,1.47,1.27,0,2.62-.23,4.02-.7,1.41-.46,2.57-1.07,3.52-1.81,.47-.36,.69-.79,.67-1.29-.04-.49-.28-.95-.75-1.36-.36-.3-.79-.45-1.27-.44-.49,.02-.93,.18-1.35,.49-.56,.41-1.29,.78-2.18,1.09s-1.78,.47-2.64,.47c-1.58,0-2.98-.35-4.2-1.03-1.23-.69-2.18-1.63-2.88-2.8-.46-.8-.76-1.66-.91-2.6h15.81c.56,0,1.01-.18,1.37-.52Zm-17.14-2.78c.15-.79,.39-1.52,.72-2.21,.58-1.2,1.43-2.14,2.55-2.83,1.13-.68,2.47-1.03,4.06-1.03,1.38,0,2.56,.32,3.53,.95,.97,.64,1.72,1.49,2.24,2.58,.38,.76,.63,1.61,.75,2.54h-13.85Z"/>
      <path class="cls-1" d="M168.98,25.57v10.13c0,.61-.19,1.12-.59,1.5-.4,.4-.91,.61-1.52,.61s-1.12-.21-1.53-.61c-.4-.39-.59-.9-.59-1.5v-10.13c0-1.58-.29-2.85-.87-3.83-.58-.99-1.37-1.73-2.35-2.21-.98-.49-2.11-.73-3.4-.73-1.16,0-2.21,.24-3.15,.7-.95,.47-1.7,1.09-2.24,1.88-.56,.78-.84,1.67-.84,2.69v11.62c0,.61-.19,1.12-.58,1.5-.39,.4-.9,.61-1.54,.61-.61,0-1.12-.21-1.52-.61-.4-.39-.61-.9-.61-1.5V17.32c0-.63,.21-1.14,.61-1.53,.4-.38,.91-.57,1.52-.57,.64,0,1.15,.19,1.54,.57,.39,.39,.58,.9,.58,1.53v.45c.62-.61,1.32-1.13,2.12-1.56,1.47-.79,3.12-1.19,4.95-1.19s3.63,.4,5.14,1.21c1.5,.81,2.69,2,3.57,3.57,.87,1.56,1.31,3.49,1.31,5.77Z"/>
      <path class="cls-1" d="M196.25,20.66c-1.01-1.73-2.38-3.09-4.1-4.1-1.71-1.01-3.65-1.5-5.82-1.5s-4.11,.5-5.83,1.5c-1.73,1.01-3.11,2.37-4.12,4.1-1.01,1.73-1.52,3.69-1.52,5.86s.46,4.11,1.4,5.82c.92,1.72,2.2,3.08,3.81,4.09,1.6,1.01,3.42,1.5,5.45,1.5s3.83-.5,5.45-1.5c.99-.62,1.86-1.37,2.58-2.27v1.54c0,.61,.19,1.12,.59,1.5,.4,.4,.91,.61,1.52,.61s1.12-.21,1.53-.61c.4-.39,.59-.9,.59-1.5v-9.18c0-2.17-.5-4.12-1.52-5.86Zm-3.52,9.79c-.63,1.18-1.5,2.09-2.62,2.77-1.1,.67-2.37,1.01-3.78,1.01s-2.63-.34-3.76-1.01c-1.13-.68-2.01-1.59-2.66-2.77-.66-1.16-.98-2.47-.98-3.93s.33-2.81,.98-3.98c.64-1.16,1.53-2.09,2.66-2.77,1.13-.67,2.38-1.01,3.76-1.01s2.68,.34,3.78,1.01c1.12,.68,1.99,1.6,2.62,2.77,.64,1.16,.96,2.49,.96,3.98s-.32,2.77-.96,3.93Z"/>
      <path class="cls-1" d="M206.63,11.07c-.75,0-1.39-.27-1.93-.8-.54-.54-.81-1.17-.81-1.92s.27-1.38,.81-1.92c.54-.54,1.19-.8,1.93-.8s1.39,.27,1.93,.8c.54,.54,.81,1.17,.81,1.92s-.27,1.38-.81,1.92c-.54,.54-1.19,.8-1.93,.8Zm0,26.7c-.61,0-1.12-.2-1.52-.6-.4-.4-.6-.9-.6-1.5V17.32c0-.63,.2-1.14,.6-1.53,.4-.38,.91-.58,1.52-.58s1.15,.19,1.54,.58c.39,.39,.58,.89,.58,1.53v18.34c0,.6-.19,1.11-.58,1.5-.39,.4-.9,.6-1.54,.6Z"/>
      <path class="cls-1" d="M228.13,35.7c0,.61-.22,1.1-.68,1.49-.46,.38-1.04,.57-1.77,.57h-.75c-1.38,0-2.63-.35-3.74-1.04-1.12-.7-1.99-1.66-2.62-2.86-.64-1.21-.96-2.57-.96-4.09v-10.18h-1.92c-.58,0-1.06-.17-1.41-.5-.36-.33-.55-.74-.55-1.24,0-.55,.18-.98,.55-1.32,.35-.33,.82-.49,1.41-.49h1.92v-5.94c0-.59,.19-1.09,.58-1.48s.89-.58,1.49-.58,1.12,.19,1.5,.58,.58,.89,.58,1.48v5.94h3.53c.58,0,1.06,.16,1.42,.49,.36,.34,.53,.78,.53,1.32,0,.5-.17,.91-.53,1.24s-.84,.5-1.42,.5h-3.53v10.18c0,1.1,.3,2.03,.91,2.77,.62,.74,1.36,1.12,2.24,1.12h1.42c.5,0,.92,.18,1.27,.57,.34,.39,.51,.89,.51,1.48Z"/>
      <path class="cls-1" d="M253.21,27.44c.36-.34,.55-.78,.55-1.3,0-2.17-.41-4.09-1.23-5.75-.82-1.66-2.01-2.97-3.57-3.92-1.55-.95-3.41-1.42-5.57-1.42s-4.14,.49-5.82,1.47c-1.7,.97-3.02,2.32-3.98,4.04-.95,1.71-1.43,3.7-1.43,5.96s.51,4.2,1.52,5.91c1.02,1.72,2.41,3.07,4.21,4.04,1.78,.98,3.83,1.47,6.13,1.47,1.27,0,2.62-.23,4.02-.7,1.41-.46,2.57-1.07,3.52-1.81,.47-.36,.69-.79,.67-1.29-.02-.49-.28-.95-.75-1.36-.36-.3-.78-.45-1.26-.44-.49,.02-.95,.18-1.36,.49-.56,.41-1.29,.78-2.18,1.09s-1.78,.47-2.64,.47c-1.58,0-2.97-.35-4.2-1.03-1.23-.69-2.17-1.63-2.88-2.8-.46-.8-.76-1.66-.91-2.6h15.81c.56,0,1.01-.18,1.37-.52Zm-17.14-2.78c.15-.79,.39-1.52,.72-2.21,.58-1.2,1.43-2.14,2.56-2.83,1.12-.68,2.47-1.03,4.05-1.03,1.38,0,2.56,.32,3.53,.95,.97,.64,1.72,1.49,2.26,2.58,.38,.76,.62,1.61,.74,2.54h-13.85Z"/>
      <path class="cls-1" d="M268.65,37.93c-2.22,0-4.2-.5-5.93-1.5-1.73-1-3.09-2.36-4.08-4.08-.99-1.72-1.48-3.66-1.48-5.83s.48-4.2,1.46-5.94c.97-1.73,2.3-3.08,3.99-4.06,1.69-.98,3.63-1.46,5.82-1.46,1.64,0,3.13,.31,4.49,.93s2.58,1.55,3.66,2.78c.39,.44,.53,.89,.42,1.36-.11,.47-.42,.88-.92,1.24-.39,.27-.82,.36-1.29,.27-.47-.1-.9-.34-1.29-.72-1.36-1.43-3.05-2.14-5.07-2.14-1.41,0-2.66,.32-3.74,.97-1.08,.65-1.93,1.55-2.54,2.7-.61,1.15-.92,2.51-.92,4.08,0,1.48,.31,2.8,.94,3.96,.62,1.15,1.49,2.07,2.6,2.74,1.11,.67,2.4,1.01,3.87,1.01,.97,0,1.82-.12,2.56-.35,.73-.23,1.41-.6,2.02-1.09,.44-.36,.9-.56,1.37-.6s.89,.09,1.25,.39c.47,.39,.73,.82,.79,1.3,.06,.48-.11,.91-.5,1.3-2,1.84-4.49,2.76-7.49,2.76Z"/>
      <path class="cls-1" d="M304.67,25.72v10.14c0,.61-.21,1.1-.61,1.5-.4,.4-.91,.59-1.52,.59s-1.12-.19-1.52-.59c-.4-.4-.61-.9-.61-1.5v-10.14c0-1.56-.29-2.84-.87-3.83-.58-.98-1.37-1.72-2.35-2.21-.98-.47-2.11-.72-3.38-.72-1.16,0-2.22,.23-3.17,.7-.95,.46-1.69,1.09-2.24,1.87-.56,.79-.84,1.69-.84,2.71v11.62c0,.61-.19,1.1-.58,1.5-.39,.4-.9,.59-1.53,.59s-1.12-.19-1.53-.59c-.4-.4-.59-.9-.59-1.5V7.84c0-.63,.19-1.14,.59-1.53,.41-.39,.91-.58,1.53-.58s1.14,.19,1.53,.58,.58,.9,.58,1.53v10.09c.62-.61,1.32-1.13,2.12-1.56,1.48-.8,3.13-1.2,4.95-1.2,1.92,0,3.63,.41,5.14,1.23,1.5,.8,2.71,1.99,3.58,3.57,.87,1.56,1.31,3.48,1.31,5.76Z"/>
    </g>
    <g>
      <path class="cls-1" d="M307.63,11.63c-1.63,0-2.96-1.33-2.96-2.96s1.33-2.96,2.96-2.96,2.96,1.33,2.96,2.96-1.33,2.96-2.96,2.96Zm0-5.37c-1.33,0-2.42,1.08-2.42,2.42s1.08,2.42,2.42,2.42,2.42-1.08,2.42-2.42-1.08-2.42-2.42-2.42Z"/>
      <path class="cls-1" d="M308.62,9.92l-.61-.99s.02-.01,.04-.01c.16-.08,.28-.19,.36-.34,.1-.15,.13-.3,.13-.49,0-.19-.04-.36-.13-.52-.08-.15-.21-.25-.36-.34s-.33-.13-.53-.13h-.73c-.06,0-.11,.02-.15,.06-.04,.04-.06,.08-.06,.16v2.72c0,.06,.02,.11,.06,.16,.04,.04,.08,.06,.15,.06s.11-.02,.16-.06c.04-.05,.06-.1,.06-.16v-.99h.51s.05,0,.07-.01l.69,1.12s.05,.06,.08,.08c.02,.01,.06,.02,.1,.02,.08,0,.15-.04,.18-.11,.04-.06,.02-.13-.02-.22Zm-1.61-1.27v-1.16h.51c.12,0,.23,.02,.33,.07,.1,.06,.17,.13,.22,.22,.06,.1,.08,.19,.08,.32,0,.11-.02,.21-.08,.29-.05,.08-.12,.15-.22,.19-.1,.05-.21,.07-.33,.07h-.51Z"/>
    </g>
  </g>
  <g>
    <g>
      <circle class="cls-2" cx="52.43" cy="21.04" r="6.22"/>
      <path class="cls-2" d="M46.56,46.52c-.26,.67-.52,1.35-.79,2.03,.03,.11,.08,.23,.12,.34,.53,1.34,1.05,2.68,1.58,4.01,.52,1.32,1.03,2.62,1.55,3.92,.23,.6,.47,1.19,.7,1.79,.18,.44,.32,.9,.48,1.34,.13,.37,.33,.64,.74,.67,.52,.03,1.03,.07,1.55,.08,.48,0,1.02,.04,1.49-.07,.27-.06,.45-.21,.54-.48,.33-.96,.75-1.88,1.12-2.83,.53-1.37,1.08-2.74,1.61-4.12,.57-1.43,1.13-2.87,1.7-4.31,.32-.82,.65-1.62,.96-2.44,.27-.68,.58-1.35,.71-2.05,.14-.76,.06-1.53,.06-2.29v-3.37c0-4.31-3.7-7.8-8.27-7.8-1.18,0-2.3,.24-3.32,.67v4.75c0,.26,.01,.51,.02,.77,.01,.83,.05,1.77-.14,2.76-.18,1.02-.54,1.9-.86,2.69-.08,.19-.16,.37-.23,.57l-.62,1.56-.71,1.79Z"/>
    </g>
    <g>
      <path class="cls-2" d="M14.5,21.04c0,3.44-2.79,6.22-6.22,6.22-3.44,0-6.22-2.79-6.22-6.22s2.79-6.22,6.22-6.22,6.22,2.79,6.22,6.22Z"/>
      <path class="cls-2" d="M14.15,46.52c.26,.67,.52,1.35,.79,2.03-.03,.11-.08,.23-.12,.34-.53,1.34-1.05,2.68-1.58,4.01-.52,1.32-1.03,2.62-1.55,3.92-.23,.6-.47,1.19-.7,1.79-.18,.44-.32,.9-.48,1.34-.13,.37-.33,.64-.74,.67-.52,.03-1.03,.07-1.55,.08-.48,0-1.02,.04-1.49-.07-.27-.06-.45-.21-.54-.48-.33-.96-.75-1.88-1.12-2.83-.53-1.37-1.08-2.74-1.61-4.12-.57-1.43-1.13-2.87-1.7-4.31-.32-.82-.65-1.62-.96-2.44-.27-.68-.58-1.35-.71-2.05-.14-.76-.06-1.53-.06-2.29v-3.37c0-4.31,3.7-7.8,8.27-7.8,1.18,0,2.3,.24,3.32,.67v4.75c0,.26-.01,.51-.02,.77-.01,.83-.05,1.77,.14,2.76,.18,1.02,.54,1.9,.86,2.69,.08,.19,.16,.37,.23,.57l.62,1.56,.71,1.79Z"/>
    </g>
    <g>
      <path class="cls-2" d="M38.8,8.44c0,4.65-3.77,8.44-8.45,8.44s-8.44-3.79-8.44-8.44S25.68,0,30.36,0s8.45,3.77,8.45,8.44Z"/>
      <path class="cls-2" d="M41.83,30.93v2.93c0,.78,.02,1.54,0,2.33-.04,1.23,.02,2.33-.33,3.54-.29,.94-.7,1.82-1.11,2.72-.35,.8-.63,1.68-.96,2.52-.72,1.86-1.45,3.71-2.19,5.57-.7,1.82-1.43,3.64-2.15,5.45-.39,1-.8,2.01-1.17,3.03-.18,.47-.35,.94-.51,1.41-.12,.33-.29,.68-.68,.74-.78,.16-1.58,.23-2.37,.23s-1.58-.08-2.37-.23c-.39-.06-.57-.41-.68-.74-.16-.47-.33-.94-.51-1.41-.37-1.02-.78-2.03-1.17-3.03-.72-1.82-1.45-3.64-2.15-5.45-.74-1.86-1.47-3.71-2.19-5.57-.33-.84-.61-1.72-.96-2.52-.41-.9-.82-1.78-1.11-2.72-.35-1.21-.29-2.31-.33-3.54-.02-.78,0-1.54,0-2.33v-2.93c0-2.99,1.29-5.71,3.36-7.64,1.35-1.29,3.05-2.25,4.97-2.76v6c0,1.74,1.41,3.17,3.15,3.17s3.15-1.43,3.15-3.17v-6c1.92,.51,3.62,1.47,4.97,2.76,2.07,1.94,3.36,4.65,3.36,7.64Z"/>
    </g>
  </g>
  <g>
    <g>
      <path class="cls-3" d="M83.83,52.31v1.26c.6-.93,1.49-1.39,2.67-1.39s2.05,.42,2.7,1.27c.64,.84,.97,1.87,.97,3.09,0,1.34-.35,2.43-1.04,3.27s-1.58,1.27-2.67,1.27-2-.48-2.63-1.43v4.69h-1.04v-12.02h1.04Zm2.6,7.77c.77,0,1.4-.31,1.9-.93s.75-1.5,.75-2.64c0-.99-.24-1.79-.72-2.41-.48-.62-1.09-.94-1.82-.94s-1.37,.27-1.9,.81c-.53,.54-.8,1.44-.8,2.69,0,.63,.09,1.19,.26,1.66s.4,.83,.68,1.07c.28,.24,.55,.42,.83,.53,.28,.11,.55,.16,.82,.16Z"/>
      <path class="cls-3" d="M98.38,59.45v1.05c-.68,.34-1.47,.51-2.38,.51-1.28,0-2.32-.4-3.12-1.2-.8-.8-1.2-1.85-1.2-3.15,0-1.38,.35-2.47,1.05-3.26,.7-.79,1.61-1.19,2.73-1.19,1.05,0,1.89,.35,2.51,1.04,.62,.69,.93,1.67,.93,2.92,0,.39-.02,.69-.07,.92h-6.08c.08,.95,.41,1.68,.99,2.18,.58,.5,1.34,.76,2.29,.76s1.75-.19,2.33-.58Zm-.53-3.31v-.39c0-.78-.22-1.41-.65-1.87-.44-.46-1.02-.7-1.76-.7s-1.33,.25-1.82,.77c-.49,.51-.77,1.24-.85,2.19h5.08Z"/>
      <path class="cls-3" d="M104.46,61.08c-1.21,0-2.17-.42-2.89-1.26-.71-.84-1.07-1.89-1.07-3.16s.37-2.32,1.1-3.18c.74-.86,1.69-1.29,2.85-1.29,1.28,0,2.27,.42,2.98,1.27,.71,.84,1.06,1.91,1.06,3.2s-.36,2.34-1.08,3.17-1.71,1.25-2.96,1.25Zm0-7.9c-.89,0-1.6,.34-2.1,1.02s-.76,1.5-.76,2.46,.26,1.75,.79,2.42c.53,.67,1.22,1.01,2.08,1.01,.94,0,1.67-.33,2.18-.99,.51-.66,.77-1.48,.77-2.44s-.24-1.83-.73-2.49c-.49-.66-1.23-.99-2.22-.99Z"/>
      <path class="cls-3" d="M111.59,52.31v1.26c.6-.93,1.49-1.39,2.67-1.39s2.05,.42,2.7,1.27c.64,.84,.97,1.87,.97,3.09,0,1.34-.35,2.43-1.04,3.27s-1.58,1.27-2.67,1.27-2-.48-2.63-1.43v4.69h-1.04v-12.02h1.04Zm2.6,7.77c.77,0,1.4-.31,1.9-.93s.75-1.5,.75-2.64c0-.99-.24-1.79-.72-2.41-.48-.62-1.09-.94-1.82-.94s-1.37,.27-1.9,.81c-.53,.54-.8,1.44-.8,2.69,0,.63,.09,1.19,.26,1.66s.4,.83,.68,1.07c.28,.24,.55,.42,.83,.53,.28,.11,.55,.16,.82,.16Z"/>
      <path class="cls-3" d="M120.04,60.92v-12.02h1.04v12.02h-1.04Z"/>
      <path class="cls-3" d="M129.89,59.45v1.05c-.68,.34-1.47,.51-2.38,.51-1.28,0-2.32-.4-3.12-1.2-.8-.8-1.2-1.85-1.2-3.15,0-1.38,.35-2.47,1.05-3.26,.7-.79,1.61-1.19,2.73-1.19,1.05,0,1.89,.35,2.51,1.04,.62,.69,.93,1.67,.93,2.92,0,.39-.02,.69-.07,.92h-6.08c.08,.95,.41,1.68,.99,2.18,.58,.5,1.34,.76,2.29,.76s1.75-.19,2.33-.58Zm-.53-3.31v-.39c0-.78-.22-1.41-.65-1.87-.44-.46-1.02-.7-1.76-.7s-1.33,.25-1.82,.77c-.49,.51-.77,1.24-.85,2.19h5.08Z"/>
      <path class="cls-3" d="M168.01,56.66c0,.98,.3,1.8,.9,2.47,.6,.67,1.45,1,2.56,1,.69,0,1.28-.18,1.77-.54v1.05c-.49,.33-1.11,.49-1.88,.49-1.39,0-2.48-.44-3.26-1.32-.78-.88-1.17-1.94-1.17-3.17s.4-2.25,1.2-3.15c.8-.9,1.88-1.34,3.23-1.34,.7,0,1.33,.15,1.88,.46v1.05c-.51-.34-1.1-.51-1.78-.51-1.05,0-1.89,.34-2.51,1.03-.62,.69-.93,1.51-.93,2.47Z"/>
      <path class="cls-3" d="M180.83,52.31h1.04v8.62h-1.04v-1.55c-.45,1.11-1.36,1.67-2.73,1.67-.84,0-1.5-.25-1.99-.76-.49-.5-.74-1.17-.74-2v-5.98h1.03v5.7c0,.66,.17,1.16,.52,1.51,.35,.35,.8,.53,1.37,.53,.76,0,1.37-.27,1.84-.82,.47-.54,.7-1.25,.7-2.12v-4.79Z"/>
      <path class="cls-3" d="M184.51,60.92v-12.02h1.04v12.02h-1.04Z"/>
      <path class="cls-3" d="M189.79,53.19v5.35c0,.99,.46,1.48,1.38,1.48,.45,0,.84-.13,1.15-.39v1.05c-.33,.22-.71,.32-1.14,.32-1.63,0-2.45-.84-2.45-2.52v-5.3h-1.41v-.88h1.41v-2.16h1.05v2.16h2.46v.88h-2.46Z"/>
      <path class="cls-3" d="M199.74,52.31h1.04v8.62h-1.04v-1.55c-.45,1.11-1.36,1.67-2.73,1.67-.84,0-1.5-.25-1.99-.76-.49-.5-.74-1.17-.74-2v-5.98h1.03v5.7c0,.66,.17,1.16,.52,1.51,.35,.35,.8,.53,1.37,.53,.76,0,1.37-.27,1.84-.82,.47-.54,.7-1.25,.7-2.12v-4.79Z"/>
      <path class="cls-3" d="M204.39,52.31v1.46c.47-1.04,1.28-1.56,2.41-1.56,.08,0,.22,.01,.42,.03v1.05c-.23-.07-.45-.1-.68-.1-.61,0-1.12,.3-1.54,.91-.41,.61-.62,1.28-.62,2.01v4.81h-1.04v-8.62h1.04Z"/>
      <path class="cls-3" d="M214.85,59.45v1.05c-.68,.34-1.47,.51-2.38,.51-1.28,0-2.32-.4-3.12-1.2-.8-.8-1.2-1.85-1.2-3.15,0-1.38,.35-2.47,1.05-3.26,.7-.79,1.61-1.19,2.73-1.19,1.05,0,1.89,.35,2.51,1.04,.62,.69,.93,1.67,.93,2.92,0,.39-.02,.69-.07,.92h-6.08c.08,.95,.41,1.68,.99,2.18,.58,.5,1.34,.76,2.29,.76s1.75-.19,2.33-.58Zm-.53-3.31v-.39c0-.78-.22-1.41-.65-1.87-.44-.46-1.02-.7-1.76-.7s-1.33,.25-1.82,.77c-.49,.51-.77,1.24-.85,2.19h5.08Z"/>
      <path class="cls-3" d="M256.56,52.61v1.04c-.53-.31-1.25-.46-2.16-.46-.5,0-.89,.12-1.18,.35-.29,.23-.43,.54-.43,.91,0,.23,.04,.43,.13,.6s.23,.33,.44,.47c.21,.14,.39,.25,.53,.31s.38,.17,.71,.31c.79,.32,1.4,.67,1.83,1.05,.42,.38,.64,.89,.64,1.54,0,.71-.25,1.28-.74,1.69-.49,.41-1.17,.62-2.03,.62-1.04,0-1.88-.17-2.51-.51v-1.07c.76,.43,1.57,.65,2.45,.65,.58,0,1.02-.12,1.32-.36,.3-.24,.45-.55,.45-.94,0-.45-.16-.8-.47-1.05-.31-.25-.82-.52-1.54-.8-.69-.27-1.24-.59-1.65-.95-.41-.36-.61-.86-.61-1.5,0-.69,.25-1.24,.76-1.66,.51-.41,1.15-.62,1.92-.62,.93,0,1.64,.13,2.14,.39Z"/>
      <path class="cls-3" d="M264.32,52.31h1.04v8.62h-1.04v-1.55c-.45,1.11-1.36,1.67-2.73,1.67-.84,0-1.5-.25-1.99-.76-.49-.5-.74-1.17-.74-2v-5.98h1.03v5.7c0,.66,.17,1.16,.52,1.51,.35,.35,.8,.53,1.37,.53,.76,0,1.37-.27,1.84-.82,.47-.54,.7-1.25,.7-2.12v-4.79Z"/>
      <path class="cls-3" d="M268.49,56.66c0,.98,.3,1.8,.9,2.47,.6,.67,1.45,1,2.56,1,.69,0,1.28-.18,1.77-.54v1.05c-.49,.33-1.11,.49-1.88,.49-1.39,0-2.48-.44-3.26-1.32-.78-.88-1.17-1.94-1.17-3.17s.4-2.25,1.2-3.15c.8-.9,1.88-1.34,3.23-1.34,.7,0,1.33,.15,1.88,.46v1.05c-.51-.34-1.1-.51-1.78-.51-1.05,0-1.89,.34-2.51,1.03-.62,.69-.93,1.51-.93,2.47Z"/>
      <path class="cls-3" d="M276.51,56.66c0,.98,.3,1.8,.9,2.47,.6,.67,1.45,1,2.56,1,.69,0,1.28-.18,1.77-.54v1.05c-.49,.33-1.11,.49-1.88,.49-1.39,0-2.48-.44-3.26-1.32-.78-.88-1.17-1.94-1.17-3.17s.4-2.25,1.2-3.15c.8-.9,1.88-1.34,3.23-1.34,.7,0,1.33,.15,1.88,.46v1.05c-.51-.34-1.1-.51-1.78-.51-1.05,0-1.89,.34-2.51,1.03-.62,.69-.93,1.51-.93,2.47Z"/>
      <path class="cls-3" d="M290.12,59.45v1.05c-.68,.34-1.47,.51-2.38,.51-1.28,0-2.32-.4-3.12-1.2-.8-.8-1.2-1.85-1.2-3.15,0-1.38,.35-2.47,1.05-3.26,.7-.79,1.61-1.19,2.73-1.19,1.05,0,1.89,.35,2.51,1.04,.62,.69,.93,1.67,.93,2.92,0,.39-.02,.69-.07,.92h-6.08c.08,.95,.41,1.68,.99,2.18,.58,.5,1.34,.76,2.29,.76s1.75-.19,2.33-.58Zm-.53-3.31v-.39c0-.78-.22-1.41-.65-1.87-.44-.46-1.02-.7-1.76-.7s-1.33,.25-1.82,.77c-.49,.51-.77,1.24-.85,2.19h5.08Z"/>
      <path class="cls-3" d="M297.27,52.61v1.04c-.53-.31-1.25-.46-2.16-.46-.5,0-.89,.12-1.18,.35-.29,.23-.43,.54-.43,.91,0,.23,.04,.43,.13,.6s.23,.33,.44,.47c.21,.14,.39,.25,.53,.31s.38,.17,.71,.31c.79,.32,1.4,.67,1.83,1.05,.42,.38,.64,.89,.64,1.54,0,.71-.25,1.28-.74,1.69-.49,.41-1.17,.62-2.03,.62-1.04,0-1.88-.17-2.51-.51v-1.07c.76,.43,1.57,.65,2.45,.65,.58,0,1.02-.12,1.32-.36,.3-.24,.45-.55,.45-.94,0-.45-.16-.8-.47-1.05-.31-.25-.82-.52-1.54-.8-.69-.27-1.24-.59-1.65-.95-.41-.36-.61-.86-.61-1.5,0-.69,.25-1.24,.76-1.66,.51-.41,1.15-.62,1.92-.62,.93,0,1.64,.13,2.14,.39Z"/>
      <path class="cls-3" d="M304.16,52.61v1.04c-.53-.31-1.25-.46-2.16-.46-.5,0-.89,.12-1.18,.35-.29,.23-.43,.54-.43,.91,0,.23,.04,.43,.13,.6s.23,.33,.44,.47c.21,.14,.39,.25,.53,.31s.38,.17,.71,.31c.79,.32,1.4,.67,1.83,1.05,.42,.38,.64,.89,.64,1.54,0,.71-.25,1.28-.74,1.69-.49,.41-1.17,.62-2.03,.62-1.04,0-1.88-.17-2.51-.51v-1.07c.76,.43,1.57,.65,2.45,.65,.58,0,1.02-.12,1.32-.36,.3-.24,.45-.55,.45-.94,0-.45-.16-.8-.47-1.05-.31-.25-.82-.52-1.54-.8-.69-.27-1.24-.59-1.65-.95-.41-.36-.61-.86-.61-1.5,0-.69,.25-1.24,.76-1.66,.51-.41,1.15-.62,1.92-.62,.93,0,1.64,.13,2.14,.39Z"/>
    </g>
    <path class="cls-3" d="M147.17,58.64c-.4-.4-.6-.9-.6-1.51s.2-1.11,.6-1.51c.4-.4,.9-.6,1.51-.6s1.11,.2,1.51,.6c.4,.4,.6,.91,.6,1.51s-.2,1.11-.6,1.51c-.4,.4-.9,.6-1.51,.6s-1.11-.2-1.51-.6Z"/>
    <path class="cls-3" d="M232.09,58.64c-.4-.4-.6-.9-.6-1.51s.2-1.11,.6-1.51,.9-.6,1.51-.6,1.11,.2,1.51,.6c.4,.4,.6,.91,.6,1.51s-.2,1.11-.6,1.51-.9,.6-1.51,.6-1.11-.2-1.51-.6Z"/>
  </g>
</svg>